<?xml version="1.0" encoding="UTF-8" standalone="no"?>
<!-- Created with Inkscape (http://www.inkscape.org/) -->

<svg
   xmlns:dc="http://purl.org/dc/elements/1.1/"
   xmlns:cc="http://creativecommons.org/ns#"
   xmlns:rdf="http://www.w3.org/1999/02/22-rdf-syntax-ns#"
   xmlns:svg="http://www.w3.org/2000/svg"
   xmlns="http://www.w3.org/2000/svg"
   xmlns:sodipodi="http://sodipodi.sourceforge.net/DTD/sodipodi-0.dtd"
   xmlns:inkscape="http://www.inkscape.org/namespaces/inkscape"
   width="210mm"
   height="297mm"
   viewBox="0 0 210 297"
   version="1.1"
   id="svg8"
   sodipodi:docname="icon_3.2.svg"
   inkscape:version="0.92.3 (2405546, 2018-03-11)">
  <defs
     id="defs2">
    <clipPath
       id="clip0_132_1059">
      <rect
         id="rect847"
         fill="white"
         height="32"
         width="32" />
    </clipPath>
    <clipPath
       id="clip0_132_1059-6">
      <rect
         id="rect899"
         fill="white"
         height="32"
         width="32" />
    </clipPath>
  </defs>
  <sodipodi:namedview
     id="base"
     pagecolor="#ffffff"
     bordercolor="#666666"
     borderopacity="1.0"
     inkscape:pageopacity="0.0"
     inkscape:pageshadow="2"
     inkscape:zoom="1.4"
     inkscape:cx="164.49083"
     inkscape:cy="854.98451"
     inkscape:document-units="mm"
     inkscape:current-layer="layer1"
     showgrid="false"
     inkscape:window-width="1920"
     inkscape:window-height="1051"
     inkscape:window-x="-9"
     inkscape:window-y="-9"
     inkscape:window-maximized="1" />
  <metadata
     id="metadata5">
    <rdf:RDF>
      <cc:Work
         rdf:about="">
        <dc:format>image/svg+xml</dc:format>
        <dc:type
           rdf:resource="http://purl.org/dc/dcmitype/StillImage" />
        <dc:title></dc:title>
      </cc:Work>
    </rdf:RDF>
  </metadata>
  <g
     inkscape:label="Layer 1"
     inkscape:groupmode="layer"
     id="layer1">
    <g
       style="fill:none"
       id="g920"
       transform="matrix(0.26458333,0,0,0.26458333,18.445236,84.690757)">
      <g
         id="g897"
         clip-path="url(#clip0_132_1059-6)">
        <path
           id="path883"
           d="M 31.9402,15.2658 25.8021,5.19929 C 25.752,5.11724 25.6747,5.05542 25.5837,5.02465 25.4927,4.99388 25.3937,4.99614 25.3041,5.03102 L 24.5704,5.3169 24.4674,5.14789 C 24.3937,5.02698 24.2798,4.93587 24.1456,4.89054 24.0115,4.84522 23.8656,4.84856 23.7337,4.9 L 16,7.91323 8.26631,4.90008 C 8.13438,4.84863 7.98854,4.84527 7.85438,4.8906 7.72022,4.93593 7.6063,5.02705 7.53261,5.14798 L 7.42957,5.31698 6.69586,5.03111 C 6.60632,4.99622 6.50735,4.99397 6.41631,5.02473 6.32527,5.0555 6.24796,5.11732 6.19794,5.19937 L 0.0598292,15.2659 c -0.0310571,0.0508 -0.05061876,0.1079 -0.05731573,0.1671 -0.00669697,0.0593 -3.6737e-4,0.1192 0.01854573,0.1758 0.0189131,0.0565 0.0499526,0.1082 0.0909458,0.1515 0.040993,0.0433 0.090949,0.0771 0.146372,0.099 l 8.754253,3.4696 -1.14095,7.3403 c -0.00905,0.0584 -0.00536,0.118 0.0108,0.1748 0.01617,0.0568 0.04443,0.1094 0.08284,0.1542 0.03841,0.0449 0.08607,0.0809 0.13971,0.1056 0.05363,0.0247 0.11198,0.0375 0.17102,0.0375 h 1.02188 c 0.08271,0 0.16349,-0.0251 0.23169,-0.0719 L 16,22.625 l 6.4704,4.4444 c 0.0682,0.0469 0.149,0.0719 0.2317,0.0719 h 1.0219 c 0.059,0 0.1174,-0.0127 0.1711,-0.0374 0.0536,-0.0247 0.1013,-0.0607 0.1397,-0.1055 0.0384,-0.0449 0.0667,-0.0975 0.0828,-0.1544 0.0162,-0.0568 0.0198,-0.1164 0.0107,-0.1748 l -1.1409,-7.3403 8.7542,-3.4696 c 0.0555,-0.0219 0.1055,-0.0557 0.1465,-0.099 0.041,-0.0433 0.072,-0.095 0.0909,-0.1516 0.019,-0.0565 0.0253,-0.1165 0.0186,-0.1757 -0.0068,-0.0593 -0.0263,-0.1163 -0.0574,-0.1672 z M 16.3274,18.351 v -5.2378 c 0,-0.0868 -0.0345,-0.1701 -0.0959,-0.2315 C 16.1701,12.8203 16.0868,12.7858 16,12.7858 c -0.0868,0 -0.1701,0.0345 -0.2315,0.0959 -0.0614,0.0614 -0.0959,0.1447 -0.0959,0.2315 V 18.351 L 3.77052,13.6339 8.29922,6.207 15.7811,9.12211 c 0.1408,0.05484 0.297,0.05484 0.4378,0 l 7.4819,-2.91511 4.5286,7.4269 z"
           inkscape:connector-curvature="0"
           style="fill:#ffffff" />
        <path
           id="path885"
           d="M 23.2659,8.75122 C 23.2503,8.71116 23.227,8.67456 23.1972,8.64352 23.1675,8.61248 23.1319,8.58761 23.0925,8.57033 23.0532,8.55305 23.0108,8.54369 22.9678,8.5428 22.9248,8.5419 22.8821,8.54948 22.842,8.56511 l -4.8286,1.88239 c -0.0401,0.0156 -0.0767,0.0389 -0.1077,0.0687 -0.0311,0.0297 -0.0559,0.0653 -0.0732,0.1047 -0.0173,0.0394 -0.0266,0.0817 -0.0275,0.1247 -9e-4,0.043 0.0066,0.0857 0.0222,0.1258 0.0157,0.0401 0.039,0.0766 0.0688,0.1077 0.0297,0.031 0.0653,0.0559 0.1047,0.0732 0.0393,0.0172 0.0817,0.0266 0.1247,0.0275 0.043,9e-4 0.0857,-0.0067 0.1258,-0.0223 l 4.8286,-1.88234 c 0.0809,-0.03155 0.146,-0.09394 0.1809,-0.17344 0.0349,-0.0795 0.0368,-0.1696 0.0052,-0.2505 z"
           inkscape:connector-curvature="0"
           style="fill:#ffffff" />
        <path
           id="path887"
           d="m 18.8096,12.2467 c -0.0401,0.0156 -0.0767,0.0389 -0.1077,0.0687 -0.031,0.0297 -0.0559,0.0653 -0.0732,0.1047 -0.0173,0.0394 -0.0266,0.0817 -0.0275,0.1247 -9e-4,0.043 0.0066,0.0857 0.0223,0.1258 0.0156,0.0401 0.0389,0.0766 0.0687,0.1077 0.0297,0.031 0.0653,0.0559 0.1047,0.0732 0.0394,0.0172 0.0817,0.0266 0.1247,0.0275 0.043,9e-4 0.0857,-0.0067 0.1258,-0.0223 l 4.8287,-1.8823 c 0.0809,-0.0316 0.1459,-0.094 0.1808,-0.1735 0.0349,-0.0795 0.0368,-0.1696 0.0053,-0.2505 -0.0316,-0.0809 -0.094,-0.1459 -0.1735,-0.1808 -0.0795,-0.0349 -0.1696,-0.0368 -0.2505,-0.0053 z"
           inkscape:connector-curvature="0"
           style="fill:#ffffff" />
        <path
           id="path889"
           d="m 19.4834,14.6361 c 0.0315,0.0809 0.0939,0.1459 0.1734,0.1808 0.0795,0.0349 0.1696,0.0368 0.2505,0.0053 l 4.8287,-1.8823 c 0.04,-0.0157 0.0766,-0.039 0.1077,-0.0688 0.031,-0.0297 0.0559,-0.0653 0.0732,-0.1047 0.0172,-0.0393 0.0266,-0.0817 0.0275,-0.1247 9e-4,-0.043 -0.0067,-0.0858 -0.0223,-0.1258 -0.0156,-0.0401 -0.039,-0.0767 -0.0687,-0.1077 -0.0298,-0.031 -0.0654,-0.0559 -0.1047,-0.0732 -0.0394,-0.0173 -0.0818,-0.0267 -0.1248,-0.0276 -0.043,-9e-4 -0.0857,0.0067 -0.1258,0.0223 l -4.8286,1.8824 c -0.0809,0.0316 -0.146,0.094 -0.1809,0.1735 -0.0349,0.0795 -0.0367,0.1696 -0.0052,0.2505 z"
           inkscape:connector-curvature="0"
           style="fill:#ffffff" />
        <path
           id="path891"
           d="M 13.9867,10.4475 9.15803,8.56512 C 9.07756,8.53556 8.98871,8.53875 8.91056,8.57398 8.83241,8.60921 8.7712,8.67368 8.74006,8.75355 8.70893,8.83342 8.71035,8.92231 8.74403,9.00114 8.77771,9.07997 8.84096,9.14245 8.92019,9.17516 l 4.82861,1.88234 c 0.0809,0.0315 0.171,0.0296 0.2505,-0.0053 0.0795,-0.0349 0.1419,-0.0999 0.1735,-0.1808 0.0156,-0.0401 0.0232,-0.0828 0.0223,-0.1258 -9e-4,-0.043 -0.0103,-0.0853 -0.0276,-0.1247 -0.0173,-0.0394 -0.0421,-0.075 -0.0732,-0.1047 -0.031,-0.0298 -0.0676,-0.0531 -0.1076,-0.0687 z"
           inkscape:connector-curvature="0"
           style="fill:#ffffff" />
        <path
           id="path893"
           d="M 13.1905,12.2467 8.36188,10.3643 c -0.08046,-0.0295 -0.16931,-0.0264 -0.24746,0.0089 -0.07815,0.0352 -0.13936,0.0997 -0.1705,0.1795 -0.03114,0.0799 -0.02971,0.1688 0.00397,0.2476 0.03368,0.0789 0.09693,0.1413 0.17616,0.1741 l 4.82865,1.8823 c 0.0809,0.0315 0.171,0.0296 0.2505,-0.0053 0.0795,-0.0349 0.1419,-0.0999 0.1734,-0.1808 0.0316,-0.0809 0.0297,-0.171 -0.0052,-0.2505 -0.0349,-0.0795 -0.1,-0.1419 -0.1809,-0.1734 z"
           inkscape:connector-curvature="0"
           style="fill:#ffffff" />
        <path
           id="path895"
           d="M 12.3305,14.2122 7.50188,12.3298 c -0.08035,-0.029 -0.16883,-0.0254 -0.24659,0.0099 -0.07776,0.0354 -0.13864,0.0997 -0.16966,0.1793 -0.03102,0.0795 -0.02973,0.1681 0.0036,0.2467 0.03333,0.0787 0.09606,0.1412 0.17482,0.1742 l 4.82865,1.8824 c 0.0803,0.029 0.1688,0.0254 0.2466,-0.0099 0.0777,-0.0354 0.1386,-0.0997 0.1696,-0.1793 0.0311,-0.0795 0.0298,-0.1681 -0.0036,-0.2467 -0.0333,-0.0787 -0.096,-0.1412 -0.1748,-0.1742 z"
           inkscape:connector-curvature="0"
           style="fill:#ffffff" />
      </g>
    </g>
    <g
       style="fill:none"
       id="g933"
       transform="matrix(0.26458333,0,0,0.26458333,20.297326,85.74905)">
      <path
         id="path922"
         d="M 15.8224,13.6282 C 14.5212,11.5308 12.6611,10.528 11.1665,9.72208 10.689,9.46466 10.2631,9.23475 9.91939,9.00283 10.0119,8.8487 10.0608,8.67237 10.061,8.49263 10.061,8.25339 9.97316,8.02189 9.81608,7.83856 10.3375,7.5553 10.6671,7.01904 10.6671,6.43504 10.6671,5.85103 10.3375,5.31471 9.81615,5.03118 9.97323,4.84798 10.061,4.61634 10.061,4.37662 10.061,4.00746 9.85934,3.67223 9.53096,3.4889 L 9.10285,0.0906688 C 9.0996,0.0656835 9.08736,0.0427367 9.06843,0.0261134 9.04949,0.0094902 9.02516,3.27236e-4 8.99996,3.35699e-4 8.97476,3.44163e-4 8.95043,0.00952347 8.93151,0.0261594 8.91259,0.0427954 8.90036,0.0657505 8.89713,0.0907379 L 8.46889,3.48896 c -0.32825,0.18334 -0.5299,0.51857 -0.5299,0.88772 0,0.23987 0.08777,0.47151 0.24456,0.65456 -0.52139,0.28347 -0.85088,0.81986 -0.85088,1.40387 0,0.58407 0.32956,1.12026 0.85095,1.40352 -0.15693,0.18319 -0.24463,0.41462 -0.24463,0.65407 0,0.18576 0.05204,0.35969 0.1416,0.5102 C 7.73693,9.23482 7.31097,9.46473 6.83352,9.72215 5.33886,10.528 3.47877,11.5309 2.1776,13.6283 0.6367,16.1121 0.280465,19.4954 1.08844,23.9717 l 0.00511,0.0284 H 16.9064 l 0.0051,-0.0284 c 0.808,-4.4763 0.4518,-7.8597 -1.0891,-10.3435 z m -9.57716,0.1937 c 0.34293,-0.3436 0.74323,-0.6247 1.18286,-0.8305 -0.72235,1.5455 -0.44552,3.4423 0.8305,4.7182 1.27602,1.2762 3.1727,1.5529 4.7183,0.8305 -0.2057,0.4398 -0.4868,0.8402 -0.8305,1.183 -1.6295,1.6297 -4.27168,1.6297 -5.90123,0 -1.62956,-1.6295 -1.62956,-4.2716 7e-5,-5.9012 z m 2.88125,1.1107 c 0.63652,0.6363 1.27291,0.6363 1.90931,0 -0.6364,0.6363 -0.6364,1.2728 0,1.9093 -0.6364,-0.6365 -1.27279,-0.6365 -1.90931,0 0.63645,-0.6365 0.63645,-1.273 0,-1.9093 z"
         inkscape:connector-curvature="0"
         style="fill:#a44aff" />
    </g>
  </g>
</svg>
