<svg width="20" height="28" viewBox="0 0 20 28" fill="none" xmlns="http://www.w3.org/2000/svg">
<path d="M18.1889 15.8993C16.6271 13.4523 14.3944 12.2824 12.6005 11.3421C12.0273 11.0418 11.5161 10.7736 11.1036 10.503C11.2146 10.3232 11.2733 10.1175 11.2735 9.90777C11.2735 9.62866 11.1681 9.35857 10.9796 9.14469C11.6054 8.81421 12.001 8.18857 12.001 7.50723C12.001 6.82588 11.6054 6.20016 10.9796 5.86938C11.1682 5.65564 11.2735 5.38539 11.2735 5.10572C11.2735 4.67502 11.0315 4.28392 10.6373 4.07003L10.1235 0.10539C10.1196 0.0762399 10.1049 0.0494683 10.0822 0.0300743C10.0594 0.0106804 10.0302 -9.86676e-06 9.99997 6.8334e-09C9.96972 9.8816e-06 9.94052 0.0107192 9.91781 0.030128C9.8951 0.0495368 9.88042 0.076318 9.87654 0.10547L9.36253 4.0701C8.96853 4.284 8.72649 4.67511 8.72649 5.10579C8.72649 5.38564 8.83184 5.65589 9.02003 5.86945C8.39421 6.20016 7.99872 6.82596 7.99872 7.50731C7.99872 8.18873 8.39429 8.81429 9.02012 9.14477C8.83176 9.35849 8.72649 9.62849 8.72649 9.90786C8.72649 10.1246 8.78895 10.3275 8.89645 10.5031C8.48396 10.7737 7.97268 11.0419 7.39959 11.3422C5.60555 12.2824 3.37289 13.4525 1.81109 15.8994C-0.0384492 18.7972 -0.466038 22.7445 0.503774 27.9669L0.509908 28H19.4901L19.4962 27.9669C20.466 22.7445 20.0385 18.7971 18.1889 15.8993V15.8993ZM6.69348 16.1253C7.1051 15.7244 7.58558 15.3965 8.11327 15.1564C7.24623 16.9595 7.57851 19.1724 9.11012 20.661C10.6417 22.1499 12.9183 22.4727 14.7735 21.6299C14.5266 22.143 14.1892 22.6102 13.7766 23.0101C11.8208 24.9115 8.64935 24.9115 6.6934 23.0101C4.73744 21.109 4.73744 18.0265 6.69348 16.1253V16.1253ZM10.1518 17.4211C10.9159 18.1635 11.6797 18.1635 12.4436 17.4211C11.6797 18.1635 11.6797 18.9061 12.4436 19.6487C11.6797 18.9061 10.9159 18.9061 10.1518 19.6487C10.9158 18.9061 10.9158 18.1635 10.1518 17.4211Z" fill="#D7F4E3"/>
</svg>
